<?xml version="1.0" encoding="UTF-8" standalone="no"?>
<svg width="10px" height="10px" viewBox="0 0 10 10" version="1.1" xmlns="http://www.w3.org/2000/svg" xmlns:xlink="http://www.w3.org/1999/xlink">
    <!-- Generator: Sketch 46.2 (44496) - http://www.bohemiancoding.com/sketch -->
    <title>home</title>
    <desc>Created with Sketch.</desc>
    <defs></defs>
    <g id="Page-1" stroke="none" stroke-width="1" fill="none" fill-rule="evenodd">
        <g id="Desktop" transform="translate(-442.000000, -329.000000)" fill-rule="nonzero" fill="#FFFFFF">
            <g id="Group-2" transform="translate(442.000000, 329.000000)">
                <g id="home">
                    <g id="Group" transform="translate(1.212121, 1.818182)">
                        <path d="M7.21575758,8.04484848 L0.35969697,8.04484848 C0.276060606,8.04484848 0.208181818,7.9769697 0.208181818,7.89333333 L0.208181818,3.65272727 C0.208181818,3.56909091 0.276060606,3.50121212 0.35969697,3.50121212 C0.443333333,3.50121212 0.511212121,3.56909091 0.511212121,3.65272727 L0.511212121,7.74212121 L7.06424242,7.74212121 L7.06424242,3.65272727 C7.06424242,3.56909091 7.13212121,3.50121212 7.21575758,3.50121212 C7.29939394,3.50121212 7.36727273,3.56909091 7.36727273,3.65272727 L7.36727273,7.89363636 C7.36727273,7.97727273 7.29969697,8.04484848 7.21575758,8.04484848 Z" id="Shape"></path>
                        <path d="M7.21030303,3.81151515 C7.1730303,3.81151515 7.13545455,3.79787879 7.10636364,3.77030303 L3.78787879,0.637272727 L0.470909091,3.77030303 C0.41,3.82787879 0.313333333,3.82484848 0.256666667,3.76424242 C0.199393939,3.70333333 0.201818182,3.60757576 0.262727273,3.55 L3.68393939,0.318787879 C3.74242424,0.263333333 3.83393939,0.263636364 3.89212121,0.318787879 L7.31454545,3.55 C7.37545455,3.60757576 7.37818182,3.70333333 7.32090909,3.76424242 C7.29060606,3.79575758 7.25060606,3.81151515 7.21030303,3.81151515 Z" id="Shape"></path>
                    </g>
                    <path d="M9.84848485,5.01787879 C9.81121212,5.01787879 9.77363636,5.00424242 9.74424242,4.97666667 L5,0.496666667 L0.255757576,4.97666667 C0.194848485,5.03393939 0.0984848485,5.03121212 0.0415151515,4.97030303 C-0.0157575758,4.90939394 -0.0133333333,4.81363636 0.0475757576,4.75606061 L4.89606061,0.177878788 C4.95454545,0.122727273 5.04575758,0.122727273 5.10454545,0.177878788 L9.9530303,4.75606061 C10.0136364,4.81363636 10.0163636,4.90939394 9.95909091,4.97030303 C9.92878788,5.00212121 9.88878788,5.01787879 9.84848485,5.01787879 Z" id="Shape"></path>
                    <path d="M6.20939394,9.8630303 L3.79090909,9.8630303 C3.70727273,9.8630303 3.63939394,9.79515152 3.63939394,9.71151515 L3.63939394,6.42818182 C3.63939394,6.34454545 3.70727273,6.27666667 3.79090909,6.27666667 L6.20939394,6.27666667 C6.2930303,6.27666667 6.36090909,6.34454545 6.36090909,6.42818182 L6.36090909,9.71151515 C6.36090909,9.79545455 6.2930303,9.8630303 6.20939394,9.8630303 Z M3.94242424,9.56 L6.05787879,9.56 L6.05787879,6.57969697 L3.94242424,6.57969697 L3.94242424,9.56 Z" id="Shape"></path>
                </g>
            </g>
        </g>
    </g>
</svg>